<?xml version="1.0" encoding="UTF-8" standalone="no"?>
<svg
   id="flag"
   version="1.1"
   sodipodi:docname="stad-flagga.svg"
   width="1257.156"
   height="698.41699"
   xml:space="preserve"
   inkscape:version="1.2.2 (732a01da63, 2022-12-09, custom)"
   inkscape:export-filename="../cf429b51/Flagga-temp.png"
   inkscape:export-xdpi="96"
   inkscape:export-ydpi="96"
   xmlns:inkscape="http://www.inkscape.org/namespaces/inkscape"
   xmlns:sodipodi="http://sodipodi.sourceforge.net/DTD/sodipodi-0.dtd"
   xmlns="http://www.w3.org/2000/svg"
   xmlns:svg="http://www.w3.org/2000/svg"><defs
     id="defs37" /><sodipodi:namedview
     id="namedview35"
     pagecolor="#ffffff"
     bordercolor="#000000"
     borderopacity="0.25"
     inkscape:showpageshadow="2"
     inkscape:pageopacity="0"
     inkscape:pagecheckerboard="true"
     inkscape:deskcolor="#d1d1d1"
     showgrid="false"
     inkscape:zoom="1.164061"
     inkscape:cx="628.83303"
     inkscape:cy="350.06757"
     inkscape:window-width="1858"
     inkscape:window-height="1016"
     inkscape:window-x="0"
     inkscape:window-y="0"
     inkscape:window-maximized="1"
     inkscape:current-layer="flag" /><rect
     width="1257.156"
     height="698.41699"
     x="0"
     y="0"
     fill="#ffffff"
     id="rect20"
     style="display:inline;stroke-width:1.34164" /><rect
     width="1257.156"
     height="232.80566"
     x="0"
     y="0"
     fill="#337321"
     id="rect18"
     style="display:inline;fill:#3b871f;fill-opacity:1;stroke-width:0.632455;image-rendering:auto" /><rect
     width="1257.156"
     height="232.80566"
     x="0"
     y="465.61133"
     fill="#0065bd"
     id="rect22"
     style="display:inline;fill:#253397;fill-opacity:1;stroke-width:1.09545" /><rect
     x="628.578"
     y="0"
     width="628.578"
     height="698.41699"
     fill="#c60c30"
     id="rect26"
     style="stroke-width:1.89738" /><rect
     x="628.578"
     y="232.80566"
     width="628.578"
     height="232.80566"
     fill="#000000"
     id="rect30"
     style="stroke-width:1.09545" /><g
     id="NP"><path
       d="m 314.289,349.2085 m -174.605,0 a 174.605,174.60425 0 1 0 349.21,0 174.605,174.60425 0 1 0 -349.21,0 z m 174.605,0 m 0,0 z"
       fill="#c60c30"
       id="path24"
       style="display:inline;fill:#c12a41;fill-opacity:1" /><g
       id="g5276"
       transform="matrix(0.09,0,0,0.09,30.787877,173.70869)"
       style="display:inline;image-rendering:auto"><g
         transform="matrix(4,0,0,4,3150,1950)"
         id="Layer_1">
<path
   style="opacity:1;fill:#dba944;fill-rule:evenodd;stroke:none;stroke-width:1;stroke-linecap:butt;stroke-linejoin:miter;stroke-miterlimit:4;stroke-dasharray:none;stroke-dashoffset:0"
   transform="translate(-511.98,-512)"
   d="M 312.71,943 C 368.99,932.4 420.2,912.88 465.44,898.6 515,883 520,931 475.79,945.9 415.55,966.25 365,949.6 312.71,943 Z M 773.74,303 c 7.71154,0.49691 15.38984,1.41831 23,2.76 -51.05127,-53.02412 -114.13345,-92.95902 -183.9,-116.42 45.52,23.91 86.23,39.38 160.9,113.61 z m 47.16,8.45 c 6.48,1.91 12.93,4.15 19.28,6.72 -1.80122,-5.88821 -3.8972,-11.68218 -6.28,-17.36 C 776.64,227 705.14,175.75 626,149.39 c 49,26.83 106,43.17 194.88,162 z M 779,208.8 c 11.59807,3.29127 22.84527,7.71244 33.58,13.2 -55.33,-55.53 -108.06,-87.84 -177.41,-108.71 47,20.11 89.36,41 143.81,95.53 z M 889.54,291 C 888.91,272.4 881.36,253.63 872.32,236.42 811.46,154.53 726.41,94.87 623.7,68.31 664.21,82.9 798.47,128.64 889.54,291 Z m -128.47,20.73 c 46.28,21.19 64.94,45.6 94.49,80.44 32.37,38.16 60.86,-6.2 29.68,-37.51 -33.32,-33.45 -86.93,-45.89 -124.17,-42.93 z m 121.12,-23.8 c -13.27,-22.25 -50.07,-57 -96.2,-69.07 33.33,23.1 48,62.51 57.46,83.89 18.85,42.38 75.47,46.82 38.74,-14.82 z m -3.73,-47.69 c 33.54,51.44 21.65,130.24 24.54,175.23 3.17,49.28 42.1,38.86 40.12,-5.35 -2.71,-60.35 -21.85,-132.6 -64.68,-169.88 z m -85,133.27 c 43.44,38.23 56.7,68.88 78.71,113.76 24.11,49.16 66.31,17.6 41.61,-24.51 -26.39,-45 -80,-77.71 -120.32,-89.25 z m 28,76 c 24.54,45.26 32.9,88.07 42.29,137.79 10.3,54.48 56.65,35.58 43.67,-12.24 -14.45,-53.25 -50.24,-102.14 -86,-125.55 z M 832.11,535 c 4.42,57.66 -3,102 -6.62,152.6 -4,55.44 40.68,50.71 45.1,1.13 C 876.66,621.07 845.67,566.37 832.11,535 Z m -13,68.35 c -13.82,65.53 -36.28,126.81 -52,174.64 -17.23,52.4 27.34,61.15 39.8,13.17 16,-61.42 15,-141.32 12.22,-187.81 z m -36.58,84.87 c -31.68,68.32 -62.57,100.3 -90.15,141.46 -30.2,45.08 7.55,66.54 33.91,25.59 31.9,-49.55 41.8,-108.87 56.24,-167 z M 950.89,359 c 12.68,61.33 -26.28,129.25 -39.58,172 -14.57,46.84 25.09,53.24 39,11.57 18.94,-56.86 26.94,-131.5 0.61,-183.58 z m 26.29,128 c -11,67.25 -57.19,113.78 -86.55,154.27 -32.14,44.37 8,65.39 37.5,26.19 40.26,-53.48 55.63,-121.87 49,-180.46 z m -11,138.76 c -29.9,61 -86.71,90.13 -126,119.16 -43,31.8 -11.57,65.62 27.49,37.88 53.29,-37.83 87.61,-98.43 98.52,-157 z M 901.9,763.06 C 856.8,811.87 805.82,820 760.68,835 c -49.46,16.4 -29,59.31 15.52,45.51 60.8,-18.84 99.21,-64.64 125.7,-117.42 z M 825.18,873.8 c -63.76,29 -106.64,10.36 -153.44,4.13 -51.24,-6.85 -48.93,41.39 -3.12,48.45 62.5,9.62 117.49,-12.19 156.56,-52.58 z M 720.65,768.94 c -48.45,46.13 -89.27,62 -132.83,81.45 -47.71,21.27 -23.59,62 19.49,43.81 58.79,-24.82 86.16,-72.8 113.34,-125.26 z M 711.29,943 C 655.01,932.4 603.8,912.88 558.56,898.6 509,883 504.05,931 548.21,945.9 608.46,966.25 659,949.6 711.29,943 Z M 250.26,303 c -7.6948,0.49874 -15.35636,1.42013 -22.95,2.76 52.08,-54 103,-87.91 171.41,-110.89 -45.5,23.92 -73.78,33.9 -148.46,108.13 z M 486.51,130.7 c -118.43,20.3 -214.23,84.43 -283.4,180.7 -6.48,1.91 -12.94,4.15 -19.28,6.72 1.7934,-5.88953 3.88612,-11.68373 6.27,-17.36 78,-100.48 182.36,-159.1 296.41,-170.11 z M 245,208.8 c -11.59875,3.28925 -22.84615,7.7105 -33.58,13.2 56.34749,-56.74316 126.62315,-97.67464 203.78,-118.69 -47.48,21.6 -90.85,33 -170.18,105.49 z M 134.47,291 c 0.63,-18.6 8.17,-37.37 17.21,-54.58 C 212.54,154.53 297.59,94.87 400.31,68.31 359.79,82.9 225.53,128.64 134.47,291 Z m 128.46,20.69 c -46.27,21.19 -64.94,45.6 -94.48,80.44 -32.37,38.16 -60.87,-6.2 -29.69,-37.51 33.32,-33.45 86.94,-45.89 124.17,-42.93 z m -121.11,-23.8 c 13.27,-22.25 50.05,-57 96.19,-69.07 -33.32,23.1 -47.95,62.51 -57.46,83.89 -18.84,42.38 -75.46,46.82 -38.73,-14.82 z m 3.72,-47.69 C 112,291.68 123.89,370.48 121,415.47 c -3.18,49.28 -42.09,38.86 -40.13,-5.35 2.71,-60.35 21.85,-132.6 64.68,-169.88 z m 85,133.27 c -43.43,38.23 -56.69,68.88 -78.7,113.76 -24.11,49.16 -66.31,17.6 -41.61,-24.51 26.38,-45 80,-77.71 120.31,-89.25 z m -28,76 c -24.55,45.26 -32.9,88.07 -42.3,137.79 -10.24,54.49 -56.61,35.59 -43.63,-12.26 14.45,-53.25 50.25,-102.14 86,-125.55 z M 191.89,535 c -4.42,57.66 3,102 6.63,152.6 4,55.44 -40.68,50.71 -45.11,1.13 -6.06,-67.66 24.92,-122.36 38.48,-153.73 z m 13,68.35 c 13.81,65.53 36.28,126.81 52,174.64 17.24,52.4 -27.34,61.15 -39.81,13.17 -16,-61.42 -15,-141.32 -12.2,-187.81 z m 36.57,84.87 c 31.69,68.32 62.58,100.3 90.14,141.46 30.21,45.08 -7.55,66.54 -33.9,25.59 -31.9,-49.55 -41.8,-108.87 -56.24,-167 z M 73.11,359 c -12.68,61.33 26.28,129.25 39.58,172 14.57,46.84 -25.09,53.24 -39,11.57 C 54.78,485.76 46.79,411.12 73.11,359 Z m -26.3,128 c 11,67.25 57.2,113.78 86.56,154.27 32.15,44.37 -8,65.39 -37.49,26.19 C 55.61,614 40.25,545.57 46.81,487 Z m 11,138.76 c 29.91,61 86.71,90.13 126,119.16 43,31.8 11.57,65.62 -27.48,37.88 C 103,745 68.72,684.35 57.8,625.74 Z m 64.3,137.32 c 45.1,48.79 96.07,56.92 141.22,71.92 49.45,16.4 29,59.31 -15.53,45.51 C 187,861.67 148.59,815.87 122.1,763.09 Z m 76.71,110.72 c 63.76,29 106.65,10.36 153.44,4.13 51.25,-6.85 48.93,41.39 3.13,48.45 C 292.87,936 237.9,914.19 198.82,873.8 Z M 303.35,768.94 c 48.44,46.13 89.28,62 132.83,81.45 47.71,21.27 23.59,62 -19.49,43.81 C 357.9,869.38 330.54,821.4 303.35,768.94 Z"
   stroke-linecap="round"
   id="path5261" />
</g><g
         transform="matrix(2.8,0,0,2.8,3150,2026.62)"
         id="g5266">
<path
   style="opacity:1;fill:#ffe100;fill-rule:nonzero;stroke:none;stroke-width:1;stroke-linecap:butt;stroke-linejoin:miter;stroke-miterlimit:4;stroke-dasharray:none;stroke-dashoffset:0"
   transform="translate(-512,-512)"
   d="m 739.3,367.37 c 75.64,-1.6 165,-33.84 165,-33.84 40.23,-30.25 50.69,-102.13 50.69,-102.13 -118.33,79.65 -305.53,107.26 -305.53,107.26 -10.55,60.39 -48.7,84.85 -82.14,94.52 l -0.21,-0.39 c -16.63,-29 -16.1,-76.17 -16.1,-76.17 9.12,-4.29 19.58,1.34 19.58,1.34 0,0 -0.26,-14.21 -7,-20.92 -6.74,-6.71 -26.28,-3.48 -26.28,-3.48 -8.58,-6.17 -20.92,-7.25 -34.33,-5.1 -13.41,2.15 -15.82,12.61 -15.82,12.61 l -28.66,92.62 c -33.86,-9.3 -73.22,-33.53 -84,-95 0,0 -187.2,-27.61 -305.48,-107.26 0,0 10.46,71.88 50.69,102.13 0,0 89.31,32.24 165,33.84 0,0 -101.38,5.1 -176.21,-10.19 0,0 20.12,57.67 60.34,74.56 0,0 110.5,3.22 140.27,-6.43 0,0 -45.86,21.75 -146.7,29 0,0 38.35,50.69 89.84,54.71 0,0 48.55,-5.9 99.24,-41 0,0 -35.94,42.37 -84.22,65.71 0,0 49.62,27.62 87.43,19.58 0,0 29,-16.9 43.45,-37.82 0,0 -14.48,33.53 -44.79,60.08 0,0 48,9.12 60.89,-3 0,0 13,-19.45 17.7,-44.26 0,0 -0.81,29.45 -15.29,53 0,0 20.92,6.59 33,-7.89 0,0 -14.08,33 -32.19,39.83 0,0 9.66,6 17.71,0 0,0 -6,4 -6.44,13.68 0.75894,0.0567 1.52106,0.0567 2.28,0 l -10.1,17.64 c 0,0 -11.46,-10.46 -21.92,-11.26 0,0 -11.26,2.41 -13.68,17.09 0,0 8.85,-11.06 13.68,-11.86 0,0 8.45,0.8 13.28,6.23 0,0 -8.85,2.62 -13.08,10.66 0,0 -1.81,11.27 0,18.71 0,0 1.21,-12.47 4.83,-17.9 0,0 7.44,-7.65 16.89,-5.84 0,0 6.44,8.65 7.24,10.66 0.8,2.01 -0.8,13.08 -0.8,13.08 0,0 4.43,-8.65 5,-13.88 -1.06571,-5.04571 -3.48566,-9.70584 -7,-13.48 l 13,-22.07 c 2.78826,-1.53984 5.04676,-3.88548 6.48,-6.73 0,0 -1.61,11.26 6,16.89 0,0 2.82,-22.53 15.29,-28.56 0,0 -10.86,76 -56.32,111.84 0,0 33.79,7.64 50.69,-18.11 0,0 -9.25,40.23 -0.8,57.94 0,0 22.52,-12.48 33,-49.89 0,0 1.24,64.74 19.31,84.47 v 0 c 18.07,-19.73 19.31,-84.47 19.31,-84.47 10.46,37.41 33,49.89 33,49.89 8.44,-17.71 -0.81,-57.94 -0.81,-57.94 16.9,25.75 50.69,18.11 50.69,18.11 -45.46,-35.81 -56.32,-111.84 -56.32,-111.84 12.47,6 15.29,28.56 15.29,28.56 7.64,-5.63 6,-16.89 6,-16.89 1.42905,2.83832 3.68025,5.18013 6.46,6.72 l 13,22.08 c -3.51434,3.77416 -5.93429,8.43429 -7,13.48 0.6,5.23 5,13.88 5,13.88 0,0 -1.61,-11.06 -0.81,-13.08 0.8,-2.02 7.24,-10.66 7.24,-10.66 9.46,-1.81 16.9,5.84 16.9,5.84 3.62,5.43 4.83,17.9 4.83,17.9 1.81,-7.44 0,-18.71 0,-18.71 -4.23,-8 -13.08,-10.66 -13.08,-10.66 4.83,-5.43 13.28,-6.23 13.28,-6.23 4.83,0.8 13.68,11.86 13.68,11.86 C 636.25,635.75 625,633.34 625,633.34 c -10.46,0.8 -21.93,11.26 -21.93,11.26 L 593,626.85 c 0.76552,0.0593 1.53448,0.0593 2.3,0 -0.4,-9.66 -6.43,-13.68 -6.43,-13.68 8,6 17.7,0 17.7,0 -18.11,-6.84 -32.19,-39.83 -32.19,-39.83 12.07,14.48 33,7.89 33,7.89 -14.48,-23.5 -15.29,-53 -15.29,-53 4.7,24.81 17.71,44.26 17.71,44.26 12.87,12.07 60.88,3 60.88,3 -30.31,-26.55 -44.79,-60.08 -44.79,-60.08 14.48,20.92 43.44,37.82 43.44,37.82 37.82,8 87.44,-19.58 87.44,-19.58 C 708.46,510.32 672.52,468 672.52,468 c 50.69,35.13 99.24,41 99.24,41 51.49,-4 89.84,-54.71 89.84,-54.71 -100.84,-7.21 -146.7,-29 -146.7,-29 29.77,9.65 140.27,6.43 140.27,6.43 40.23,-16.89 60.34,-74.56 60.34,-74.56 -74.83,15.29 -176.21,10.19 -176.21,10.19 M 518.1,338.52 c -3.42,-0.27 -9.19,-4.43 -9.19,-4.43 3.14893,-0.48216 6.33701,-0.65965 9.52,-0.53 4.69,0.26 8.85,5 8.85,5 0,0 -5.76,0.27 -9.18,0"
   stroke-linecap="round"
   id="path5264" />
</g></g></g><g
     id="Flamman"
     transform="translate(155.98047)"><path
       d="m 786.88653,349.2085 m -174.605,0 a 174.605,174.60425 0 1 0 349.21,0 174.605,174.60425 0 1 0 -349.21,0 z m 174.605,0 m 0,0 z"
       fill="#000000"
       id="path32" /><g
       id="g9195"
       transform="matrix(0.76434446,0,0,0.76434446,-160.54456,49.738632)"><g
         transform="matrix(1.5608013,0,0,1.5608013,1243.3239,384.24587)"
         id="g6344"><path
           d="m -84.597632,50.751078 c 0,46.69434 37.87143,84.567312 84.567302,84.567312 46.697027,0 84.567302,-37.869242 84.567302,-84.567312 0,-33.826901 -21.141835,-38.055276 -21.141835,-50.74034243 0,-12.68512357 12.685105,-29.59858457 -12.685087,-50.74039957 12.685087,21.141815 -8.456748,25.370171 -8.456748,46.5120061 0,21.1418349 8.456748,21.1418349 8.456748,38.0552949 0,9.339965 -7.573116,16.913441 -16.913478,16.913441 -9.341025,0 -16.913442,-7.577223 -16.913442,-16.913441 0,-16.91346 16.913442,-33.82690143 16.913442,-59.19713 0,-25.370171 -4.228356,-33.826902 -16.913442,-54.968737 -12.6851044,-21.14184 -33.826901,-38.05528 -16.91346,-54.96874 -25.370172,8.45673 -12.685105,42.283635 -12.685105,63.42547 0,21.141836 -16.91346,33.826921 -16.91346,59.197112 0,25.37019 12.685124,29.598565 12.685124,46.512025 0,9.339965 -7.573155,16.913441 -16.913499,16.913441 -9.341007,0 -16.913461,-7.577223 -16.913461,-16.913441 0,-16.91346 8.456731,-16.91346 8.456731,-38.0552949 0,-21.1418351 -21.141814,-25.3701911 -8.456731,-46.5120061 -25.370171,21.141815 -12.685083,38.055276 -12.685083,50.74039957 0,12.68506643 -21.141818,16.91344143 -21.141818,50.74034243 z"
           fill="#c60c30"
           id="path6342" /></g><g
         transform="matrix(3.1451492,0,0,3.1451492,1243.3239,384.24587)"
         id="g6348"><path
           d="m 3.4003054,-47.0438 -6.8125003,0.0937 3.40625018,6.75 3.40625012,-6.84375 z m -3.40625012,6.84375 v 0.0312 0.0312 l 6.87500012,3.375 -0.0937,-6.8125 -6.78125012,3.375 z m 0,0.0625 -3.00000018,6.03125 a 9.5711477,9.5711477 0 0 0 -6.4374997,9.03125 9.5711477,9.5711477 0 0 0 1.9062497,6.125 v 6.21875 c -0.6920397,-0.39818 -1.3912897,-0.78878 -2.0937497,-1.15625 a 3.515625,3.515625 0 0 0 1.25,-2.6875 3.5128502,3.5128502 0 0 0 -3.4062504,-3.53125 3.5128502,3.5128502 0 0 0 -3.625,3.53125 3.515625,3.515625 0 0 0 0,0.0937 c -0.78298,-0.30449 -1.55911,-0.61145 -2.34375,-0.875 a 3.515625,3.515625 0 0 0 1.6875,-2.96875 3.5128502,3.5128502 0 0 0 -3.75,-3.5 3.5128502,3.5128502 0 0 0 -3.28125,3.5 3.515625,3.515625 0 0 0 0.375,1.59375 c -1.20848,-0.26781 -2.40683,-0.49799 -3.59375,-0.65625 a 3.515625,3.515625 0 0 0 1.90625,-3.125 3.5128502,3.5128502 0 0 0 -3.75,-3.5 3.5128502,3.5128502 0 0 0 -3.28125,3.5 3.515625,3.515625 0 0 0 1.4375,2.8125 c -0.74424,-0.0245 -1.49266,-0.0251 -2.21875,0 -0.40123,0.0139 -0.79223,0.0637 -1.1875,0.0937 a 3.515625,3.515625 0 0 0 0.65625,-2.03115 3.5128502,3.5128502 0 0 0 -3.75,-3.5 3.5128502,3.5128502 0 0 0 -3.28125,3.5 3.515625,3.515625 0 0 0 1.4375,2.84375 c -0.65736,0.18081 -1.31189,0.39172 -1.9375,0.625 -0.36182,0.13492 -0.7126,0.28183 -1.0625,0.4375 a 3.515625,3.515625 0 0 0 0.0312,-0.375 3.5128502,3.5128502 0 0 0 -3.75,-3.53125 3.5128502,3.5128502 0 0 0 -3.28125,3.53125 3.515625,3.515625 0 0 0 2.4375,3.34375 c -0.64645,0.5916 -1.26662,1.23703 -1.8125,1.9375 a 3.5128502,3.5128502 0 0 0 -3.5,-2.21875 3.5128502,3.5128502 0 0 0 -3.25,3.5 3.5128502,3.5128502 0 0 0 4.34375,3.09375 c -0.17426,0.47492 -0.33216,0.96414 -0.46875,1.46875 -0.0747,0.27612 -0.12379,0.55956 -0.1875,0.84375 a 3.5128502,3.5128502 0 0 0 -3.0625,-1.4375 3.5128502,3.5128502 0 0 0 -3.28125,3.5 3.515625,3.515625 0 0 0 5.78125,2.6875 c -0.0153,1.15659 0.052,2.36197 0.1875,3.625 a 3.5128502,3.5128502 0 0 0 -2.90625,-1.25 3.5128502,3.5128502 0 0 0 -3.28125,3.5 3.515625,3.515625 0 0 0 6.78125,1.34375 c 0.20091,0.98233 0.43381,2.02248 0.71875,3.0625 a 3.5128502,3.5128502 0 0 0 -0.0625,0 3.5128502,3.5128502 0 0 0 -3.25,3.5 3.515625,3.515625 0 0 0 4.3125,3.46875 l 8.25,20.78125 0.0625,-0.0312 7.1875,1.125 -4.9375,4.78125 1.78125,4.53125 c 10.53393,-1.57744 21.74234,-4.4375 36.53125028,-4.4375 14.52930972,0 25.93481972,2.86006 36.46874972,4.4375 l 1.78125,-4.53125 -4.9375,-4.78125 7.1875,-1.125 0.0625,0.0312 8.375,-21.125 a 3.5128502,3.5128502 0 0 0 4.1875,-3.125 3.5128502,3.5128502 0 0 0 -3.3125,-3.5 c 0.28555,-1.04225 0.54883,-2.07819 0.75,-3.0625 a 3.515625,3.515625 0 0 0 6.75,-1.34375 3.5128502,3.5128502 0 0 0 -3.625,-3.5 3.5128502,3.5128502 0 0 0 -2.5625,1.21875 c 0.13315,-1.25175 0.20268,-2.44668 0.1875,-3.59375 a 3.515625,3.515625 0 0 0 5.78125,-2.6875 3.5128502,3.5128502 0 0 0 -3.625,-3.5 3.5128502,3.5128502 0 0 0 -2.71875,1.40625 c -0.0618,-0.27391 -0.11539,-0.5461 -0.1875,-0.8125 -0.10336,-0.38185 -0.21868,-0.76014 -0.34375,-1.125 a 3.515625,3.515625 0 0 0 4.25,-3.4375 3.5128502,3.5128502 0 0 0 -3.625,-3.5 3.5128502,3.5128502 0 0 0 -3.15625,2.21875 c -0.54588,-0.70047 -1.16605,-1.3459 -1.8125,-1.9375 a 3.515625,3.515625 0 0 0 2.4375,-3.34375 3.5128502,3.5128502 0 0 0 -3.625,-3.53125 3.5128502,3.5128502 0 0 0 -3.40625,3.53125 3.515625,3.515625 0 0 0 0.0312,0.375 c -0.3499,-0.15567 -0.70068,-0.30258 -1.0625,-0.4375 -0.61629,-0.22981 -1.25912,-0.44611 -1.90625,-0.625 a 3.515625,3.515625 0 0 0 1.40625,-2.84375 3.5128502,3.5128502 0 0 0 -3.625,-3.5 3.5128502,3.5128502 0 0 0 -3.40625,3.5 3.515625,3.515625 0 0 0 0.65625,2.03125 c -0.39527,-0.03 -0.78627,-0.0799 -1.1875,-0.0937 -0.71845,-0.0248 -1.45118,-0.0235 -2.1875,0 a 3.515625,3.515625 0 0 0 1.40625,-2.8125 3.5128502,3.5128502 0 0 0 -3.625,-3.5 3.5128502,3.5128502 0 0 0 -3.40625,3.5 3.515625,3.515625 0 0 0 1.875,3.125 c -1.17854,0.15742 -2.3627,0.39109 -3.5625,0.65625 a 3.515625,3.515625 0 0 0 0.375,-1.59375 3.5128502,3.5128502 0 0 0 -3.625,-3.5 3.5128502,3.5128502 0 0 0 -3.40625,3.5 3.515625,3.515625 0 0 0 1.625,2.96875 c -0.77168,0.2594 -1.51123,0.54474 -2.28125,0.84375 a 3.515625,3.515625 0 0 0 0,-0.0625 3.5128502,3.5128502 0 0 0 -3.625,-3.53125 3.5128502,3.5128502 0 0 0 -3.4062496,3.53125 3.515625,3.515625 0 0 0 1.25,2.65625 c -0.62249,0.3252 -1.22937,0.68179 -1.84375,1.03125 V -18.95 a 9.5711477,9.5711477 0 0 0 1.90625,-6.125 9.5711477,9.5711477 0 0 0 -6.75,-9.15625 L -0.00604472,-40.1375 Z M 40.587805,36.6437 l -2.3125,5.875 0.3125,0.28125 7.15625,-1.21875 z m -78.875,5.875 -2.3125,-5.875 -5.15625,4.9375 7.15625,1.21875 z m 31.4062501,-86.09375 v 6.8125 l 6.84375018,-3.40625 z m 6.09374988,12.46875 H 1.0253053 v 0.9375 4.3125 c 1.8809201,0.12515 3.2295501,0.62455 4.1250001,1.15625 1.03467,0.61437 1.53125,1.375 1.53125,1.375 l 0.5,0.78125 -1.5625,0.96875 -0.5,-0.78125 c 0,0 -0.16033,-0.30709 -0.90625,-0.75 -0.74592,-0.44291 -2.01305,-0.9375 -4.09375012,-0.9375 -2.21347018,0 -3.50952018,0.45475 -4.21875018,0.84375 -0.35461,0.19447 -0.5383,0.38203 -0.65625,0.5 -0.118,0.1179 -0.125,0.0937 -0.125,0.0937 l -0.46875,0.78125 -1.5625,-0.90625 0.46875,-0.8125 c 0,0 0.13826,-0.23197 0.375,-0.46875 0.23674,-0.23678 0.58589,-0.53398 1.09375,-0.8125 0.87926,-0.4822 2.24963,-0.88952 4.18749988,-1 v -4.34375 -0.9375 z m 0.6562503,13.03125 a 3.2418388,3.2418388 0 0 1 0.34375,0 3.2418388,3.2418388 0 0 1 3.15625012,3.25 3.25,3.25 0 0 1 -1.0625,2.375 3.2418388,3.2418388 0 0 1 1.0625,2.375 3.25,3.25 0 0 1 -1.8125,2.9375 3.2418388,3.2418388 0 0 1 1.8125,2.875 3.25,3.25 0 0 1 -3.00000012,3.25 3.2418388,3.2418388 0 0 1 3.00000012,3.21875 3.2500002,3.2500002 0 0 1 -6.5000003,0 3.2418388,3.2418388 0 0 1 3.03125018,-3.21875 3.25,3.25 0 0 1 -3.03125018,-3.25 3.2418388,3.2418388 0 0 1 1.8125,-2.875 3.25,3.25 0 0 1 -1.8125,-2.9375 3.2418388,3.2418388 0 0 1 1.0625,-2.34375 3.25,3.25 0 0 1 -1.0625,-2.40625 3.2418388,3.2418388 0 0 1 3.00000018,-3.25 z m -32.12500028,2.125 c 7.4342,-0.22922 16.62997,2.4395 24.7187501,7.5 V 6.0187 h -0.125 c 0.0436,0.0771 0.0818,0.14209 0.125,0.21875 v 0.625 h 0.34375 c 2.05415,3.67667 3.6128,6.79058 3.375,7.8125 -0.011,0.0103 -0.052,0.0522 -0.0625,0.0625 1.1e-4,0.005 -3.9e-4,0.0562 0,0.0625 -0.011,0.0101 -0.0522,0.0526 -0.0625,0.0625 1.7e-4,0.005 -5.6e-4,0.056 0,0.0625 -0.007,-6e-4 -0.0573,1.7e-4 -0.0625,0 1.8e-4,0.005 -7e-4,0.0246 0,0.0312 -0.006,-4.6e-4 -0.026,1.3e-4 -0.0312,0 -0.0198,0.0106 -0.10446,0.0525 -0.125,0.0625 -0.0129,-3.1e-4 -0.0584,-5.4e-4 -0.0625,0 -0.0128,-1.5e-4 -0.0581,-2.2e-4 -0.0625,0 -0.0279,3.6e-4 -0.0631,0.003 -0.0937,0 -0.97437,-0.12445 -3.22703,-1.64192 -7.1875001,-5.15625 v 17.4375 c 4.3126901,-3.76153 6.8732801,-5.14258 8.0937501,-5.15625 0.0584,10e-4 0.15872,-0.004 0.21875,0 0.0464,0.0128 0.15427,0.0509 0.1875,0.0625 0.0129,0.006 0.0491,0.0545 0.0625,0.0625 0.0264,0.0173 0.0691,0.0103 0.0937,0.0312 0.0349,0.0325 0.0982,0.0947 0.125,0.125 0.009,0.0118 0.052,0.0486 0.0625,0.0625 0.0147,0.0225 0.0507,0.10277 0.0625,0.125 0.011,0.0198 0.0213,0.0736 0.0312,0.0937 -1.7e-4,0.0197 5.9e-4,0.10497 0,0.125 0.007,0.0258 0.0504,0.0934 0.0625,0.125 0.002,0.008 -0.002,0.0246 0,0.0312 -4.4e-4,0.0216 0.004,0.10017 0,0.125 -0.0129,0.0872 -0.0522,0.20442 -0.0625,0.28125 -0.3878,2.51624 -4.66449,7.875 -8.9375001,7.875 -5.54418,0 -9.21875,-4.79985 -9.21875,-7.8125 0,-0.82699 0.13007,-1.44616 0.34375,-1.875 0.0463,-0.0862 0.10155,-0.24193 0.15625,-0.3125 0.011,-0.0136 0.0509,-0.0183 0.0625,-0.0312 0.0185,-0.019 0.0949,-0.0955 0.125,-0.125 0.0444,-0.0327 0.11898,-0.10117 0.15625,-0.125 0.0947,-0.0552 0.22507,-0.11502 0.34375,-0.15625 0.06,-0.0191 0.15799,-0.0507 0.21875,-0.0625 0.0303,-0.005 0.0953,0.002 0.125,0 1.39192,-0.0705 3.53838,1.25784 5.6875,2.75 0.47182,-8.73493 -1.58396,-13.21843 -8.84375,-8.90625 0.3475,-3.9246 -0.0257,-6.83903 -1.53125,-8.125 -0.62942,-0.51382 -1.48555,-0.76622 -2.53125,-0.6875 -0.0112,8.4e-4 -0.0511,-0.001 -0.0625,0 -0.023,0.003 -0.0389,-0.004 -0.0625,0 -0.14161,0.0267 -0.32556,0.0697 -0.46875,0.0937 -5.07974,0.85147 -2.87827,6.17173 -0.84375,9.8125 -2.27541,0.30679 -3.80143,0.98008 -4.75,1.84375 -0.0844,0.0791 -0.23737,0.19901 -0.3125,0.28125 -2.84491,3.21377 1.09499,8.63541 3.625,9.0625 0.50219,-1.8472 1.45781,-3.02908 2.34375,-3.53125 0.11897,-0.064 0.29073,-0.14904 0.40625,-0.1875 0.0492,-0.0149 0.1393,-0.0523 0.1875,-0.0625 0.0197,-0.006 0.0694,-0.0528 0.0937,-0.0625 0.007,-0.003 0.056,0.002 0.0625,0 0.0413,-0.003 0.14726,-0.001 0.1875,0 0.0199,-3.8e-4 0.0739,-6e-5 0.0937,0 0.02,0.0103 0.10517,0.0518 0.125,0.0625 0.0496,0.0138 0.14062,0.0417 0.1875,0.0625 0.0173,0.008 0.0637,0.0471 0.0937,0.0625 0.0713,0.0452 0.18041,0.0879 0.25,0.15625 0.008,0.009 0.0229,0.0534 0.0312,0.0625 0.0405,0.0468 0.0926,0.13558 0.125,0.1875 0.085,0.14553 0.16885,0.36156 0.21875,0.5625 0.0295,0.13107 0.0495,0.31483 0.0625,0.46875 0.31428,3.71865 -0.27836,10.15625 -6.40625,10.15625 -4.63927,0 -7.93816,-4.37069 -7.9375,-6.5 10e-4,-0.0507 -0.005,-0.10834 0,-0.15625 -4e-4,-0.02 1.1e-4,-0.10516 0,-0.125 0.0103,-0.0202 0.0519,-0.10517 0.0625,-0.125 -1.3e-4,-0.006 4.7e-4,-0.0256 0,-0.0312 0.0275,-0.0657 0.0931,-0.19951 0.125,-0.25 0.0103,-0.011 0.0521,-0.0524 0.0625,-0.0625 0.0145,-0.0147 0.0197,-0.0191 0.0312,-0.0312 0.0233,-0.0253 0.10066,-0.10426 0.125,-0.125 0.0101,-0.011 0.0523,-0.0522 0.0625,-0.0625 0.0444,-0.0187 0.11539,-0.0472 0.15625,-0.0625 0.0198,-0.011 0.10487,-0.0524 0.125,-0.0625 0.0197,1.5e-4 0.10497,-5.1e-4 0.125,0 0.0599,-0.004 0.16459,0.001 0.21875,0 0.0287,2e-5 0.0952,-10e-4 0.125,0 0.92805,0.0604 2.41717,0.76525 4.53125,2.375 l -4.9375,-15 c -1.86347,4.75937 -3.08954,6.86909 -3.78125,7.34375 -0.005,0.005 -0.0577,0.0567 -0.0625,0.0625 -0.005,-8e-5 -0.0564,4.8e-4 -0.0625,0 -0.005,-4e-5 -0.0564,3.2e-4 -0.0625,0 -0.005,0 -0.0563,1.7e-4 -0.0625,0 -0.008,4.1e-4 -0.0235,1.9e-4 -0.0312,0 -0.005,9e-5 -0.0562,-2.1e-4 -0.0625,0 -0.005,1.4e-4 -0.0562,-4.3e-4 -0.0625,0 -0.0156,-0.0156 -0.0577,-0.0588 -0.0625,-0.0625 -0.006,-0.006 -0.0568,-0.0242 -0.0625,-0.0312 -0.0101,-0.01 -0.0525,-0.0525 -0.0625,-0.0625 6.1e-4,-0.006 -1.7e-4,-0.0573 0,-0.0625 -0.007,-0.0151 -0.0161,-0.0944 -0.0312,-0.125 -0.005,-0.0136 0.005,-0.0481 0,-0.0625 -0.56961,-1.88968 0.53496,-8.9827 1.46875,-11.28125 l -3.59375,1.75 c -2.83987,-7.88385 -3.27033,-13.86247 -2.125,-18.09375 1.21829,-4.50083 4.02636,-7.21372 8.0625,-8.71875 1.97574,-0.73673 4.27193,-1.14234 6.75,-1.21875 z m 62.6875,0 c 3.18375,-0.0953 6.11197,0.30497 8.5625,1.21875 4.03614,1.50503 6.84421,4.21792 8.0625,8.71875 1.14533,4.23128 0.71487,10.2099 -2.125,18.09375 l -3.59375,-1.75 c 0.93381,2.29855 2.03837,9.39157 1.46875,11.28125 -0.006,0.0143 0.005,0.0488 0,0.0625 -0.0147,0.0306 -0.0242,0.10987 -0.0312,0.125 1.7e-4,0.005 -6e-4,0.0565 0,0.0625 -0.009,0.0101 -0.0524,0.053 -0.0625,0.0625 -0.0147,0.0152 -0.0535,0.0223 -0.0625,0.0312 -0.006,0.004 -0.0471,0.0469 -0.0625,0.0625 -0.006,-3.5e-4 -0.0573,1.3e-4 -0.0625,0 -0.006,-2.1e-4 -0.0573,9e-5 -0.0625,0 -0.007,1.9e-4 -0.0233,4.1e-4 -0.0312,0 -0.006,1.7e-4 -0.0573,0 -0.0625,0 -0.005,3.2e-4 -0.0575,-4e-5 -0.0625,0 -0.0204,-0.009 -0.0951,-0.0467 -0.125,-0.0625 -0.69172,-0.47466 -1.85528,-2.58438 -3.71875,-7.34375 l -5,15 c 1.97425,-1.50328 3.4388,-2.24083 4.375,-2.375 0.0657,-0.007 0.15799,0.002 0.21875,0 0.0297,-6.4e-4 0.0966,-7e-4 0.125,0 0.0228,10e-4 0.0616,9.9e-4 0.0937,0 0.007,4e-5 0.056,-3.3e-4 0.0625,0 0.02,-5.1e-4 0.10537,1.5e-4 0.125,0 0.0202,0.011 0.10517,0.052 0.125,0.0625 0.0305,0.0147 0.0772,0.0549 0.0937,0.0625 0.005,-2e-4 0.0568,7e-4 0.0625,0 0.011,0.011 0.0524,0.0522 0.0625,0.0625 0.0244,0.0208 0.10166,0.0997 0.125,0.125 0.0255,0.0235 0.0732,0.0695 0.0937,0.0937 0.011,0.011 0.0522,0.0524 0.0625,0.0625 0.0184,0.0444 0.0478,0.14839 0.0625,0.1875 -4.6e-4,0.006 1.2e-4,0.0263 0,0.0312 0.011,0.0198 0.0524,0.10477 0.0625,0.125 -1.1e-4,0.0198 4e-4,0.10497 0,0.125 0.006,0.0479 -0.001,0.10577 0,0.15625 6.6e-4,2.12931 -3.29822,6.5 -7.9375,6.5 -6.12789,0 -6.72052,-6.4376 -6.40625,-10.15625 0.0129,-0.15383 0.0331,-0.33764 0.0625,-0.46875 0.0367,-0.12427 0.11274,-0.30749 0.15625,-0.40625 0.0147,-0.0401 0.0469,-0.11839 0.0625,-0.15625 0.0325,-0.0519 0.0845,-0.14073 0.125,-0.1875 0.009,-0.009 0.0227,-0.0536 0.0312,-0.0625 0.0696,-0.0683 0.17878,-0.11103 0.25,-0.15625 0.0299,-0.0152 0.0765,-0.054 0.0937,-0.0625 0.02,-0.0105 0.10477,-0.0525 0.125,-0.0625 0.005,4.6e-4 0.0575,-1.4e-4 0.0625,0 0.0198,-0.0106 0.10497,-0.0522 0.125,-0.0625 0.006,-3.1e-4 0.0238,8e-5 0.0312,0 0.033,7.9e-4 0.10477,6.1e-4 0.125,0 0.0204,4e-5 0.0953,-2.3e-4 0.125,0 0.007,0.002 0.0551,-0.003 0.0625,0 0.0244,0.01 0.0741,0.0565 0.0937,0.0625 0.1821,0.0385 0.45109,0.14102 0.65625,0.25 0.0507,0.0285 0.10815,0.0615 0.15625,0.0937 0.81779,0.56896 1.66144,1.7324 2.125,3.4375 2.39958,-0.40507 6.05467,-5.28708 4,-8.53125 -0.10353,-0.1578 -0.24301,-0.38216 -0.375,-0.53125 -0.0751,-0.0822 -0.22815,-0.20209 -0.3125,-0.28125 -0.94857,-0.86368 -2.4746,-1.53697 -4.75,-1.84375 2.0345,-3.64077 4.23599,-8.96102 -0.84375,-9.8125 -4.07302,-0.68272 -5.17478,2.86258 -4.65625,8.71875 -7.25979,-4.31218 -9.31556,0.17132 -8.84375,8.90625 2.39424,-1.66237 4.80115,-3.08263 6.15625,-2.625 0.0233,0.008 0.0712,0.0215 0.0937,0.0312 0.0334,0.0154 0.0931,0.0443 0.125,0.0625 0.0525,0.0317 0.10797,0.0856 0.15625,0.125 0.0301,0.0295 0.10647,0.10596 0.125,0.125 0.011,0.0129 0.0513,0.0178 0.0625,0.0312 0.0547,0.0706 0.11018,0.22634 0.15625,0.3125 0.21368,0.42884 0.34375,1.04801 0.34375,1.875 0,3.01265 -3.67458,7.8125 -9.21875,7.8125 -4.2730196,0 -8.5809496,-5.35876 -8.9687496,-7.875 -0.011,-0.0768 -0.0177,-0.19408 -0.0312,-0.28125 -0.004,-0.0248 4.4e-4,-0.10337 0,-0.125 0.002,-0.007 -0.002,-0.0238 0,-0.0312 0.0129,-0.0317 0.0236,-0.0993 0.0312,-0.125 -5.8e-4,-0.02 1.7e-4,-0.10537 0,-0.125 0.009,-0.0202 0.0522,-0.0739 0.0625,-0.0937 0.011,-0.0223 0.0471,-0.10247 0.0625,-0.125 0.011,-0.014 0.0533,-0.0507 0.0625,-0.0625 0.007,-0.009 0.0542,-0.0539 0.0625,-0.0625 0.0147,-0.0141 0.0448,-0.0463 0.0625,-0.0625 0.009,-0.008 0.0215,-0.0233 0.0312,-0.0312 0.0251,-0.0186 0.0986,-0.05 0.125,-0.0625 0.0332,-0.0116 0.14105,-0.0496 0.1875,-0.0625 0.06,-0.004 0.16037,10e-4 0.21875,0 1.22047,0.0136 3.78107,1.39473 8.0937496,5.15625 V 9.8623 c -3.9604696,3.51433 -6.2131196,5.03181 -7.1874996,5.15625 -0.0306,0.003 -0.0658,3.6e-4 -0.0937,0 -0.004,-2.2e-4 -0.0504,-1.5e-4 -0.0625,0 -0.004,-5.4e-4 -0.0504,-3.1e-4 -0.0625,0 -0.009,-0.0103 -0.0529,-0.0518 -0.0625,-0.0625 -0.006,1.2e-4 -0.0562,-3.8e-4 -0.0625,0 -0.011,-0.0101 -0.0215,-0.0208 -0.0312,-0.0312 -0.006,1.7e-4 -0.0561,-6e-4 -0.0625,0 5.7e-4,-0.006 -1.7e-4,-0.0572 0,-0.0625 -0.011,-0.01 -0.0524,-0.0523 -0.0625,-0.0625 3.9e-4,-0.006 -1.1e-4,-0.0573 0,-0.0625 -0.011,-0.0103 -0.052,-0.0522 -0.0625,-0.0625 -0.2378,-1.02192 1.32084,-4.13582 3.375,-7.8125 h 0.59375 V -8.6064 c 7.3780396,-4.55764 15.6519996,-7.13402 22.6562496,-7.34375 z m -31.09374972,46.71875 6.50000012,3.25 -6.50000012,3.25 -6.46875018,-3.25 z M -20.162195,32.86245 c 1.86027,5.9e-4 3.44351,0.72188 3.75,1.875 0.41483,1.53583 -1.53264,3.56376 -4.09375,4.25 -2.5611,0.68625 -5.27884,-0.0875 -5.6875,-1.625 -0.41483,-1.53583 1.56389,-3.56376 4.125,-4.25 0.64027,-0.17156 1.28616,-0.2502 1.90625,-0.25 z m 40.96875,0.125 a 5.0600138,3.0360082 0 0 1 0.65625,0 5.0600138,3.0360082 0 0 1 4.71875,4.375 5.3575525,3.2145315 0 0 1 -9.78125,-2.625 5.0600138,3.0360082 0 0 1 4.40625,-1.75 z"
           fill="#fedd00"
           id="path6346" /></g><rect
         style="fill:#ffffff;fill-opacity:0;stroke-width:0.455967"
         id="rect6894"
         width="0.77728671"
         height="1.8728325"
         x="1055.4087"
         y="608.65222" /></g></g></svg>
